<?xml version="1.0" encoding="utf-8"?>
<!-- Generator: Adobe Illustrator 25.4.1, SVG Export Plug-In . SVG Version: 6.00 Build 0)  -->
<svg version="1.0" id="Layer_1" xmlns="http://www.w3.org/2000/svg" xmlns:xlink="http://www.w3.org/1999/xlink" x="0px" y="0px"
	 viewBox="0 0 228 152.6" style="enable-background:new 0 0 228 152.6;" xml:space="preserve">
<style type="text/css">
	.st0{fill:#00ADEF;}
	.st1{fill:#FFFFFF;}
	.st2{fill:none;}
</style>
<path class="st0" d="M94.7,80.6L98.3,70c0.1-0.7,0.8-1.2,1.5-1.1h1.6c1.2,0,1.5,0.6,1.1,1.7l-0.9,2.4c-1.9,5-3.9,9.9-5.8,14.9
	c-0.7,2.3-2.6,4-4.9,4.4c-1.2,0.2-2.4,0.1-3.5-0.4c-0.6-0.2-0.9-0.8-0.7-1.3c0,0,0,0,0-0.1v-0.1c0.1-0.3,0.2-0.7,0.4-1
	c0.2-0.6,0.9-0.9,1.5-0.7h0.2c1.1,0.5,2.4,0.1,3-0.9c0.5-0.7,0.9-1.5,1.2-2.4c0-0.3,0-0.5-0.2-0.7l-6-14c-0.1-0.2-0.2-0.5-0.2-0.7
	c-0.1-0.4,0.1-0.8,0.5-1c0.1,0,0.2-0.1,0.3-0.1h2.5c0.5,0.1,1,0.5,1.1,1l3.7,10.4L94.7,80.6z"/>
<path class="st0" d="M108.2,71.7c0.8-1.2,2-2.2,3.4-2.8c1.6-0.6,3.4-0.7,5.1-0.1c2,0.7,3.3,2.7,3.2,4.8c0.1,3.6,0.1,7.2,0,10.8
	c0.1,0.6-0.4,1.1-1,1.2h-1.4c-1.2,0-1.6-0.4-1.6-1.6v-8.8c-0.2-2.3-1.5-3.3-3.7-2.7c-2,0.5-3.5,2.2-3.6,4.3
	c-0.1,2.3-0.1,4.5-0.1,6.8c0,1.8-0.2,2-2,2h-0.6c-1.2,0-1.5-0.4-1.5-1.6V70.4c0-1.2,0.4-1.5,1.6-1.6c2.3,0,2.4,0.1,2.4,2.3
	C108.3,71.3,108.2,71.5,108.2,71.7z"/>
<path class="st0" d="M130.9,68.5c1.9,0,3.7,0.5,5.3,1.6c0.6,0.3,0.9,1,0.6,1.6c0,0,0,0,0,0c0,0.1-0.1,0.2-0.2,0.3s-0.3,0.4-0.4,0.6
	c-0.3,0.6-1,0.9-1.6,0.7c-0.2-0.1-0.3-0.1-0.4-0.3c-1-0.7-2.3-1-3.5-1c-2.8,0.2-4.9,2.5-4.7,5.3c0,0,0,0,0,0v0.3
	c0.4,4,4.1,6,7.8,4.2c0.4-0.2,0.8-0.5,1.2-0.7c0.5-0.4,1.1-0.3,1.5,0.2c0,0,0.1,0.1,0.1,0.1c0.1,0.1,0.1,0.1,0.1,0.2
	c0.2,0.3,0.3,0.6,0.5,0.9c0.2,0.5,0.1,1.1-0.3,1.4c-4.4,3.5-12.5,2.7-14.7-3.7C120.2,74.3,124.4,68.5,130.9,68.5z"/>
<path class="st0" d="M79.7,68.5c1.5,0,3,0.4,4.4,1.1c0.7,0.2,1.1,0.9,0.9,1.6c0,0,0,0.1,0,0.1c0,0.2-0.1,0.3-0.2,0.4
	c-0.7,1.4-1.1,1.5-2.5,0.9c-1.1-0.6-2.4-0.8-3.7-0.6c-0.7,0.1-1.2,0.6-1.3,1.3c-0.1,0.7,0.3,1.3,0.9,1.5c0.8,0.4,1.6,0.7,2.5,1
	c1.3,0.4,2.6,1.1,3.6,2c1.8,1.8,1.7,4.7-0.1,6.5c0,0,0,0,0,0c-0.3,0.3-0.6,0.5-0.9,0.7c-2.3,1.3-5.1,1.5-7.5,0.5
	c-0.8-0.3-1.5-0.7-2.2-1.1c-0.6-0.2-0.8-0.9-0.6-1.5c0,0,0,0,0,0v-0.1l0.1-0.1c0.1-0.2,0.2-0.3,0.3-0.5c0.6-1,1.1-1.1,2.1-0.5
	c1.1,0.7,2.4,1.1,3.7,1.1c0.5,0,1-0.1,1.5-0.3c0.7-0.3,1.1-1.1,0.8-1.8c-0.1-0.3-0.3-0.6-0.6-0.7c-0.6-0.4-1.3-0.7-2-0.9
	c-1.4-0.5-2.7-1.1-3.9-1.9c-2-1.5-2.4-4.3-0.9-6.3c0.3-0.4,0.7-0.7,1.1-1C76.5,69,78.1,68.5,79.7,68.5z"/>
<path class="st0" d="M177.9,72.8c1-2,2.7-3.5,4.8-4.1c1.3-0.4,2.7-0.3,4,0.2c1.2,0.5,2,1.5,2.3,2.8c0.1,0.4,0.2,0.7,0.2,1.1
	c0.5-0.7,1-1.4,1.6-2.1c1.6-1.8,4-2.6,6.4-2.1c2,0.4,3.6,2.1,3.7,4.2c0.1,0.5,0.1,1.1,0.1,1.6v10c0,0.7-0.2,0.9-0.8,0.8
	s-0.5-0.5-0.5-0.9v-8.6c0-0.7,0-1.5-0.1-2.2c-0.3-2.9-2.3-4.3-5.1-3.6c-2.1,0.6-3.8,2.2-4.4,4.3c-0.3,1-0.5,2-0.5,3.1
	c-0.1,2.4,0,4.7,0,7.1c0,0.6-0.3,0.9-0.9,0.8s-0.6-0.5-0.6-0.8v-9.1c0-0.7,0-1.3-0.1-2c-0.4-3-2.3-4-5-3.4s-4.1,2.7-4.8,5.3
	c-0.2,0.7-0.3,1.5-0.3,2.2v6.8c0,0.5,0,1-0.7,1s-0.7-0.5-0.7-0.9V69.7c0-0.3,0.2-0.7,0.4-0.9c0.5-0.3,0.9,0.1,0.9,0.7
	C177.9,70.6,177.9,71.6,177.9,72.8L177.9,72.8z"/>
<path class="st0" d="M174.8,77.1c0.1,4.7-3.6,8.6-8.3,8.7c-4.7,0.1-8.6-3.6-8.7-8.3v-0.8c0.1-4.7,4-8.4,8.7-8.3c0,0,0,0,0,0
	C171.1,68.6,174.8,72.5,174.8,77.1z M173.3,77c0.1-3.9-3-7-6.9-7.1c-3.9-0.1-7,3-7.1,6.9c-0.1,3.9,3,7,6.9,7.1
	c3.8,0.1,7-2.9,7.1-6.7C173.3,77.2,173.3,77.1,173.3,77z"/>
<path class="st0" d="M142.8,77.3c0.1-3.6,1.4-6.4,4.6-7.9c2.9-1.5,6.5-1.2,9.1,0.8c0.3,0.2,0.6,0.5,0.3,1s-0.6,0.6-1.2,0.2
	c-2.6-2-6.2-2-8.8,0c-2.6,2.2-3.4,5.8-2,8.9c1.3,2.9,4.5,4.5,7.6,3.9c1.3-0.2,2.6-0.8,3.6-1.6c0.3-0.2,0.6-0.5,1-0.1
	c0.3,0.2,0.3,0.6,0.1,0.9c0,0,0,0,0,0l-0.2,0.2c-2.4,2-5.6,2.6-8.5,1.6c-2.8-0.9-4.9-3.3-5.4-6.2C142.9,78.5,142.9,77.9,142.8,77.3z
	"/>
<path class="st0" d="M141.2,83.3c0.9,0,1,0.1,1,1s-0.1,1-1,1s-1-0.1-1-1.1S140.2,83.3,141.2,83.3z"/>
<path class="st1" d="M63.4,69.8c-1.5-1.5-3.5-2.4-5.6-2.6c-1.2-5.7-6.8-9.4-12.5-8.2c-2.5,0.5-4.6,1.9-6.2,3.9c-1,1.3-1.6,2.7-2,4.3
	c-2.1,0.2-4,1.1-5.5,2.5l-0.1,0.1c-1.7,1.7-2.7,3.9-2.7,6.3v0.4c0.1,2.3,1,4.5,2.6,6.1l0.2,0.1c1.5,1.5,3.5,2.4,5.6,2.6
	c1.2,5.7,6.8,9.3,12.5,8.1c0,0,0,0,0,0c4-0.9,7.2-4.1,8.1-8.1c2.1-0.2,4.1-1.1,5.6-2.6l0.1-0.1c1.6-1.7,2.5-3.9,2.6-6.2v-0.4
	C66.1,73.7,65.1,71.5,63.4,69.8z"/>
<path class="st0" d="M68,76c0-2.6-1.1-5.2-3-7l-0.1-0.1c-1.7-1.6-3.8-2.6-6.1-2.8c-1.4-6.3-7.6-10.2-13.8-8.8
	c-2.6,0.6-5,2.1-6.7,4.2c-1.1,1.4-1.8,3-2.1,4.7c-2.3,0.2-4.4,1.2-6.1,2.8L30,69.2c-1.9,1.8-2.9,4.3-3,6.9v0.4
	c0.1,2.5,1.1,5,2.9,6.8l0.2,0.2c1.7,1.7,3.9,2.7,6.2,2.9c1.3,6.3,7.5,10.3,13.8,8.9c4.5-1,7.9-4.4,8.9-8.9c2.3-0.3,4.5-1.3,6.2-2.9
	l0.1-0.1c1.8-1.8,2.8-4.3,2.8-6.8v-0.2C68,76.1,68,76.1,68,76z M63,81.3c-1.2,1.2-2.9,1.9-4.6,2c-0.1-0.8-0.2-1.7-0.5-2.5l0.1-0.2
	c1.2,0,2.4-0.5,3.2-1.4c0.9-0.9,1.5-2,1.6-3.3c0.1-1.1-0.3-2.2-1.1-2.9c-1-0.8-2.1-1.3-3.4-1.4c-1.3-0.1-2.5,0.4-3.4,1.3h-0.1
	l-0.3,0.3l1.1,0.9l-4.7,1.7l0.4-5.2l1.3,1c1.7-2.8,0.7-6.4-2.1-8.1c-2.8-1.6-6.3-0.7-8,2c-1.6,2.6-0.9,5.9,1.5,7.7
	c0.9,0.6,1.9,1.1,3,1.5c2.2,0.9,4.4,1.2,6.2,2.8c3.6,3,4,8.4,1,12c-3,3.5-8.2,4-11.8,1.1c-2.3-1.9-3.5-4.8-3-7.8
	c-0.6,0.2-1.3,0.3-1.9,0.3l0,0c-1.9,0-3.8-0.7-5.2-2h-0.1c-1.4-1.3-2.1-3.1-2.1-5c0-1.8,0.7-3.6,2-4.9v0.1c1.2-1.2,2.8-1.9,4.5-2
	c0.1,0.8,0.2,1.6,0.4,2.4c-1.1,0.1-2.1,0.6-2.9,1.4c-0.8,0.8-1.3,1.8-1.4,2.9c0,1.2,0.4,2.3,1.1,3.2c0.8,0.8,1.9,1.3,3.1,1.4
	c1.2,0,2.4-0.4,3.3-1.2h0.1c0.1-0.1,0.2-0.2,0.3-0.2l-1.2-0.8l4.9-1.6L44,81.9l-1.3-1c-1.7,2.7-1,6.3,1.8,8.1c0,0,0,0,0,0
	c2.8,1.7,6.4,0.9,8.1-1.9c1.6-2.6,1-6-1.4-7.8c-0.3-0.2-0.6-0.4-0.9-0.5c-2.6-1.3-5.6-1.7-8-3.5c-3.8-2.9-4.4-8.3-1.5-12
	c2.9-3.8,8.3-4.4,12-1.6c2.4,1.8,3.7,4.8,3.4,7.8c0.7-0.2,1.5-0.3,2.2-0.3c1.8,0,3.5,0.7,4.8,2h-0.1c1.3,1.3,2,3.1,2,4.9
	c0,1.9-0.7,3.7-2.1,5L63,81.3z"/>
<rect x="21" y="52.3" class="st2" width="186" height="48"/>
</svg>
